<mxfile host="app.diagrams.net" modified="2023-10-11T02:13:26.070Z" agent="Mozilla/5.0 (Windows NT 10.0; Win64; x64) AppleWebKit/537.36 (KHTML, like Gecko) Chrome/117.0.0.0 Safari/537.36" etag="1Wb7ihe7dA_zIHpmcYlk" version="22.0.4" type="github">
  <diagram name="Страница — 1" id="gihXoI0WDXw5GF-pxrfD">
    <mxGraphModel dx="793" dy="705" grid="1" gridSize="10" guides="1" tooltips="1" connect="1" arrows="1" fold="1" page="1" pageScale="1" pageWidth="827" pageHeight="1169" math="0" shadow="0">
      <root>
        <mxCell id="0" />
        <mxCell id="1" parent="0" />
        <object label="Клиент" имя="" id="QmXfwYASVwwKy7SROcgY-1">
          <mxCell style="swimlane;fontStyle=1;align=center;verticalAlign=top;childLayout=stackLayout;horizontal=1;startSize=26;horizontalStack=0;resizeParent=1;resizeParentMax=0;resizeLast=0;collapsible=1;marginBottom=0;whiteSpace=wrap;html=1;" parent="1" vertex="1">
            <mxGeometry x="160" y="233" width="210" height="294" as="geometry">
              <mxRectangle x="160" y="130" width="80" height="30" as="alternateBounds" />
            </mxGeometry>
          </mxCell>
        </object>
        <mxCell id="QmXfwYASVwwKy7SROcgY-2" value="- фамилия: String" style="text;strokeColor=none;fillColor=none;align=left;verticalAlign=top;spacingLeft=4;spacingRight=4;overflow=hidden;rotatable=0;points=[[0,0.5],[1,0.5]];portConstraint=eastwest;whiteSpace=wrap;html=1;" parent="QmXfwYASVwwKy7SROcgY-1" vertex="1">
          <mxGeometry y="26" width="210" height="26" as="geometry" />
        </mxCell>
        <mxCell id="QmXfwYASVwwKy7SROcgY-10" value="- имя: String" style="text;strokeColor=none;fillColor=none;align=left;verticalAlign=top;spacingLeft=4;spacingRight=4;overflow=hidden;rotatable=0;points=[[0,0.5],[1,0.5]];portConstraint=eastwest;whiteSpace=wrap;html=1;" parent="QmXfwYASVwwKy7SROcgY-1" vertex="1">
          <mxGeometry y="52" width="210" height="26" as="geometry" />
        </mxCell>
        <mxCell id="QmXfwYASVwwKy7SROcgY-11" value="- отчество: String" style="text;strokeColor=none;fillColor=none;align=left;verticalAlign=top;spacingLeft=4;spacingRight=4;overflow=hidden;rotatable=0;points=[[0,0.5],[1,0.5]];portConstraint=eastwest;whiteSpace=wrap;html=1;" parent="QmXfwYASVwwKy7SROcgY-1" vertex="1">
          <mxGeometry y="78" width="210" height="26" as="geometry" />
        </mxCell>
        <mxCell id="QmXfwYASVwwKy7SROcgY-14" value="- адрес: String" style="text;strokeColor=none;fillColor=none;align=left;verticalAlign=top;spacingLeft=4;spacingRight=4;overflow=hidden;rotatable=0;points=[[0,0.5],[1,0.5]];portConstraint=eastwest;whiteSpace=wrap;html=1;" parent="QmXfwYASVwwKy7SROcgY-1" vertex="1">
          <mxGeometry y="104" width="210" height="26" as="geometry" />
        </mxCell>
        <mxCell id="QmXfwYASVwwKy7SROcgY-12" value="- фамилия: String" style="text;strokeColor=none;fillColor=none;align=left;verticalAlign=top;spacingLeft=4;spacingRight=4;overflow=hidden;rotatable=0;points=[[0,0.5],[1,0.5]];portConstraint=eastwest;whiteSpace=wrap;html=1;" parent="QmXfwYASVwwKy7SROcgY-1" vertex="1">
          <mxGeometry y="130" width="210" height="26" as="geometry" />
        </mxCell>
        <mxCell id="QmXfwYASVwwKy7SROcgY-13" value="- телефон: String" style="text;strokeColor=none;fillColor=none;align=left;verticalAlign=top;spacingLeft=4;spacingRight=4;overflow=hidden;rotatable=0;points=[[0,0.5],[1,0.5]];portConstraint=eastwest;whiteSpace=wrap;html=1;" parent="QmXfwYASVwwKy7SROcgY-1" vertex="1">
          <mxGeometry y="156" width="210" height="26" as="geometry" />
        </mxCell>
        <mxCell id="QmXfwYASVwwKy7SROcgY-15" value="- email: String" style="text;strokeColor=none;fillColor=none;align=left;verticalAlign=top;spacingLeft=4;spacingRight=4;overflow=hidden;rotatable=0;points=[[0,0.5],[1,0.5]];portConstraint=eastwest;whiteSpace=wrap;html=1;" parent="QmXfwYASVwwKy7SROcgY-1" vertex="1">
          <mxGeometry y="182" width="210" height="26" as="geometry" />
        </mxCell>
        <mxCell id="QmXfwYASVwwKy7SROcgY-16" value="- постоянный ли клиент: Boolean" style="text;strokeColor=none;fillColor=none;align=left;verticalAlign=top;spacingLeft=4;spacingRight=4;overflow=hidden;rotatable=0;points=[[0,0.5],[1,0.5]];portConstraint=eastwest;whiteSpace=wrap;html=1;" parent="QmXfwYASVwwKy7SROcgY-1" vertex="1">
          <mxGeometry y="208" width="210" height="26" as="geometry" />
        </mxCell>
        <mxCell id="QmXfwYASVwwKy7SROcgY-17" value="- сумма покупок: Int" style="text;strokeColor=none;fillColor=none;align=left;verticalAlign=top;spacingLeft=4;spacingRight=4;overflow=hidden;rotatable=0;points=[[0,0.5],[1,0.5]];portConstraint=eastwest;whiteSpace=wrap;html=1;" parent="QmXfwYASVwwKy7SROcgY-1" vertex="1">
          <mxGeometry y="234" width="210" height="26" as="geometry" />
        </mxCell>
        <mxCell id="QmXfwYASVwwKy7SROcgY-3" value="" style="line;strokeWidth=1;fillColor=none;align=left;verticalAlign=middle;spacingTop=-1;spacingLeft=3;spacingRight=3;rotatable=0;labelPosition=right;points=[];portConstraint=eastwest;strokeColor=inherit;" parent="QmXfwYASVwwKy7SROcgY-1" vertex="1">
          <mxGeometry y="260" width="210" height="8" as="geometry" />
        </mxCell>
        <mxCell id="QmXfwYASVwwKy7SROcgY-18" value="+ добавитьКСуммеПокупок(Int)" style="text;strokeColor=none;fillColor=none;align=left;verticalAlign=top;spacingLeft=4;spacingRight=4;overflow=hidden;rotatable=0;points=[[0,0.5],[1,0.5]];portConstraint=eastwest;whiteSpace=wrap;html=1;" parent="QmXfwYASVwwKy7SROcgY-1" vertex="1">
          <mxGeometry y="268" width="210" height="26" as="geometry" />
        </mxCell>
        <mxCell id="QmXfwYASVwwKy7SROcgY-19" value="Товар" style="swimlane;fontStyle=1;align=center;verticalAlign=top;childLayout=stackLayout;horizontal=1;startSize=26;horizontalStack=0;resizeParent=1;resizeParentMax=0;resizeLast=0;collapsible=1;marginBottom=0;whiteSpace=wrap;html=1;" parent="1" vertex="1">
          <mxGeometry x="530" y="40" width="180" height="112" as="geometry" />
        </mxCell>
        <mxCell id="QmXfwYASVwwKy7SROcgY-23" value="- наименование: String" style="text;strokeColor=none;fillColor=none;align=left;verticalAlign=top;spacingLeft=4;spacingRight=4;overflow=hidden;rotatable=0;points=[[0,0.5],[1,0.5]];portConstraint=eastwest;whiteSpace=wrap;html=1;" parent="QmXfwYASVwwKy7SROcgY-19" vertex="1">
          <mxGeometry y="26" width="180" height="26" as="geometry" />
        </mxCell>
        <mxCell id="QmXfwYASVwwKy7SROcgY-20" value="- цена за шт: Int" style="text;strokeColor=none;fillColor=none;align=left;verticalAlign=top;spacingLeft=4;spacingRight=4;overflow=hidden;rotatable=0;points=[[0,0.5],[1,0.5]];portConstraint=eastwest;whiteSpace=wrap;html=1;" parent="QmXfwYASVwwKy7SROcgY-19" vertex="1">
          <mxGeometry y="52" width="180" height="26" as="geometry" />
        </mxCell>
        <mxCell id="QmXfwYASVwwKy7SROcgY-24" value="- единицы измерения: String" style="text;strokeColor=none;fillColor=none;align=left;verticalAlign=top;spacingLeft=4;spacingRight=4;overflow=hidden;rotatable=0;points=[[0,0.5],[1,0.5]];portConstraint=eastwest;whiteSpace=wrap;html=1;" parent="QmXfwYASVwwKy7SROcgY-19" vertex="1">
          <mxGeometry y="78" width="180" height="26" as="geometry" />
        </mxCell>
        <mxCell id="QmXfwYASVwwKy7SROcgY-21" value="" style="line;strokeWidth=1;fillColor=none;align=left;verticalAlign=middle;spacingTop=-1;spacingLeft=3;spacingRight=3;rotatable=0;labelPosition=right;points=[];portConstraint=eastwest;strokeColor=inherit;" parent="QmXfwYASVwwKy7SROcgY-19" vertex="1">
          <mxGeometry y="104" width="180" height="8" as="geometry" />
        </mxCell>
        <mxCell id="QmXfwYASVwwKy7SROcgY-36" style="edgeStyle=orthogonalEdgeStyle;rounded=0;orthogonalLoop=1;jettySize=auto;html=1;endArrow=diamond;endFill=1;" parent="1" source="QmXfwYASVwwKy7SROcgY-25" target="QmXfwYASVwwKy7SROcgY-19" edge="1">
          <mxGeometry relative="1" as="geometry" />
        </mxCell>
        <mxCell id="QmXfwYASVwwKy7SROcgY-37" style="edgeStyle=orthogonalEdgeStyle;rounded=0;orthogonalLoop=1;jettySize=auto;html=1;endArrow=diamond;endFill=1;" parent="1" source="QmXfwYASVwwKy7SROcgY-25" target="QmXfwYASVwwKy7SROcgY-1" edge="1">
          <mxGeometry relative="1" as="geometry" />
        </mxCell>
        <mxCell id="QmXfwYASVwwKy7SROcgY-25" value="Продажа" style="swimlane;fontStyle=1;align=center;verticalAlign=top;childLayout=stackLayout;horizontal=1;startSize=26;horizontalStack=0;resizeParent=1;resizeParentMax=0;resizeLast=0;collapsible=1;marginBottom=0;whiteSpace=wrap;html=1;" parent="1" vertex="1">
          <mxGeometry x="500" y="250" width="240" height="260" as="geometry" />
        </mxCell>
        <mxCell id="QmXfwYASVwwKy7SROcgY-26" value="- товары: Map&amp;lt;Товар, Int&amp;gt;" style="text;strokeColor=none;fillColor=none;align=left;verticalAlign=top;spacingLeft=4;spacingRight=4;overflow=hidden;rotatable=0;points=[[0,0.5],[1,0.5]];portConstraint=eastwest;whiteSpace=wrap;html=1;" parent="QmXfwYASVwwKy7SROcgY-25" vertex="1">
          <mxGeometry y="26" width="240" height="26" as="geometry" />
        </mxCell>
        <mxCell id="QmXfwYASVwwKy7SROcgY-29" value="- клиент: Клиент" style="text;strokeColor=none;fillColor=none;align=left;verticalAlign=top;spacingLeft=4;spacingRight=4;overflow=hidden;rotatable=0;points=[[0,0.5],[1,0.5]];portConstraint=eastwest;whiteSpace=wrap;html=1;" parent="QmXfwYASVwwKy7SROcgY-25" vertex="1">
          <mxGeometry y="52" width="240" height="26" as="geometry" />
        </mxCell>
        <mxCell id="QmXfwYASVwwKy7SROcgY-30" value="- дата продажи: Date" style="text;strokeColor=none;fillColor=none;align=left;verticalAlign=top;spacingLeft=4;spacingRight=4;overflow=hidden;rotatable=0;points=[[0,0.5],[1,0.5]];portConstraint=eastwest;whiteSpace=wrap;html=1;" parent="QmXfwYASVwwKy7SROcgY-25" vertex="1">
          <mxGeometry y="78" width="240" height="26" as="geometry" />
        </mxCell>
        <mxCell id="QmXfwYASVwwKy7SROcgY-31" value="- дата доставки: Date" style="text;strokeColor=none;fillColor=none;align=left;verticalAlign=top;spacingLeft=4;spacingRight=4;overflow=hidden;rotatable=0;points=[[0,0.5],[1,0.5]];portConstraint=eastwest;whiteSpace=wrap;html=1;" parent="QmXfwYASVwwKy7SROcgY-25" vertex="1">
          <mxGeometry y="104" width="240" height="26" as="geometry" />
        </mxCell>
        <mxCell id="QmXfwYASVwwKy7SROcgY-32" value="- применяется ли скидка: Boolean" style="text;strokeColor=none;fillColor=none;align=left;verticalAlign=top;spacingLeft=4;spacingRight=4;overflow=hidden;rotatable=0;points=[[0,0.5],[1,0.5]];portConstraint=eastwest;whiteSpace=wrap;html=1;" parent="QmXfwYASVwwKy7SROcgY-25" vertex="1">
          <mxGeometry y="130" width="240" height="26" as="geometry" />
        </mxCell>
        <mxCell id="QmXfwYASVwwKy7SROcgY-27" value="" style="line;strokeWidth=1;fillColor=none;align=left;verticalAlign=middle;spacingTop=-1;spacingLeft=3;spacingRight=3;rotatable=0;labelPosition=right;points=[];portConstraint=eastwest;strokeColor=inherit;" parent="QmXfwYASVwwKy7SROcgY-25" vertex="1">
          <mxGeometry y="156" width="240" height="8" as="geometry" />
        </mxCell>
        <mxCell id="QmXfwYASVwwKy7SROcgY-35" value="+ создатьПродажу(&lt;br&gt;&lt;span style=&quot;&quot;&gt;&lt;span style=&quot;white-space: pre;&quot;&gt;&amp;nbsp;&amp;nbsp;&amp;nbsp;&amp;nbsp;&lt;/span&gt;&lt;/span&gt;Map&amp;lt;Товар, Int&amp;gt;,&lt;br&gt;&lt;span style=&quot;&quot;&gt;&lt;span style=&quot;white-space: pre;&quot;&gt;&amp;nbsp;&amp;nbsp;&amp;nbsp;&amp;nbsp;&lt;/span&gt;&lt;/span&gt;Клиент,&lt;br&gt;&lt;span style=&quot;&quot;&gt;&lt;span style=&quot;white-space: pre;&quot;&gt;&amp;nbsp;&amp;nbsp;&amp;nbsp;&amp;nbsp;&lt;/span&gt;&lt;/span&gt;Дата Продажи,&amp;nbsp;&lt;br&gt;&lt;span style=&quot;&quot;&gt;&lt;span style=&quot;white-space: pre;&quot;&gt;&amp;nbsp;&amp;nbsp;&amp;nbsp;&amp;nbsp;&lt;/span&gt;&lt;/span&gt;Дата Доставки&lt;br&gt;)" style="text;strokeColor=none;fillColor=none;align=left;verticalAlign=top;spacingLeft=4;spacingRight=4;overflow=hidden;rotatable=0;points=[[0,0.5],[1,0.5]];portConstraint=eastwest;whiteSpace=wrap;html=1;" parent="QmXfwYASVwwKy7SROcgY-25" vertex="1">
          <mxGeometry y="164" width="240" height="96" as="geometry" />
        </mxCell>
        <mxCell id="HcMKOEFeZCEfm2jOjd8y-12" style="edgeStyle=orthogonalEdgeStyle;rounded=0;orthogonalLoop=1;jettySize=auto;html=1;" edge="1" parent="1" source="HcMKOEFeZCEfm2jOjd8y-1" target="HcMKOEFeZCEfm2jOjd8y-5">
          <mxGeometry relative="1" as="geometry" />
        </mxCell>
        <mxCell id="HcMKOEFeZCEfm2jOjd8y-13" style="edgeStyle=orthogonalEdgeStyle;rounded=0;orthogonalLoop=1;jettySize=auto;html=1;" edge="1" parent="1" source="HcMKOEFeZCEfm2jOjd8y-1" target="HcMKOEFeZCEfm2jOjd8y-2">
          <mxGeometry relative="1" as="geometry" />
        </mxCell>
        <mxCell id="HcMKOEFeZCEfm2jOjd8y-14" style="edgeStyle=orthogonalEdgeStyle;rounded=0;orthogonalLoop=1;jettySize=auto;html=1;" edge="1" parent="1" source="HcMKOEFeZCEfm2jOjd8y-1" target="HcMKOEFeZCEfm2jOjd8y-4">
          <mxGeometry relative="1" as="geometry" />
        </mxCell>
        <mxCell id="HcMKOEFeZCEfm2jOjd8y-15" style="edgeStyle=orthogonalEdgeStyle;rounded=0;orthogonalLoop=1;jettySize=auto;html=1;entryX=0;entryY=0.5;entryDx=0;entryDy=0;" edge="1" parent="1" source="HcMKOEFeZCEfm2jOjd8y-1" target="HcMKOEFeZCEfm2jOjd8y-3">
          <mxGeometry relative="1" as="geometry" />
        </mxCell>
        <mxCell id="HcMKOEFeZCEfm2jOjd8y-1" value="Клиент" style="shape=umlActor;verticalLabelPosition=bottom;verticalAlign=top;html=1;" vertex="1" parent="1">
          <mxGeometry x="260" y="910" width="30" height="60" as="geometry" />
        </mxCell>
        <mxCell id="HcMKOEFeZCEfm2jOjd8y-2" value="зарегистрироваться в системе" style="ellipse;whiteSpace=wrap;html=1;" vertex="1" parent="1">
          <mxGeometry x="350" y="840" width="140" height="70" as="geometry" />
        </mxCell>
        <mxCell id="HcMKOEFeZCEfm2jOjd8y-3" value="оформить заказ" style="ellipse;whiteSpace=wrap;html=1;" vertex="1" parent="1">
          <mxGeometry x="339" y="1040" width="140" height="70" as="geometry" />
        </mxCell>
        <mxCell id="HcMKOEFeZCEfm2jOjd8y-4" value="посмотреть каталог товаров" style="ellipse;whiteSpace=wrap;html=1;" vertex="1" parent="1">
          <mxGeometry x="350" y="940" width="140" height="70" as="geometry" />
        </mxCell>
        <mxCell id="HcMKOEFeZCEfm2jOjd8y-5" value="добавить товар в корзину" style="ellipse;whiteSpace=wrap;html=1;" vertex="1" parent="1">
          <mxGeometry x="195" y="770" width="140" height="70" as="geometry" />
        </mxCell>
        <mxCell id="HcMKOEFeZCEfm2jOjd8y-16" style="edgeStyle=orthogonalEdgeStyle;rounded=0;orthogonalLoop=1;jettySize=auto;html=1;" edge="1" parent="1" source="HcMKOEFeZCEfm2jOjd8y-7" target="HcMKOEFeZCEfm2jOjd8y-9">
          <mxGeometry relative="1" as="geometry">
            <Array as="points">
              <mxPoint x="790" y="815" />
            </Array>
          </mxGeometry>
        </mxCell>
        <mxCell id="HcMKOEFeZCEfm2jOjd8y-17" style="edgeStyle=orthogonalEdgeStyle;rounded=0;orthogonalLoop=1;jettySize=auto;html=1;entryX=1;entryY=0.5;entryDx=0;entryDy=0;" edge="1" parent="1" source="HcMKOEFeZCEfm2jOjd8y-7" target="HcMKOEFeZCEfm2jOjd8y-10">
          <mxGeometry relative="1" as="geometry" />
        </mxCell>
        <mxCell id="HcMKOEFeZCEfm2jOjd8y-18" style="edgeStyle=orthogonalEdgeStyle;rounded=0;orthogonalLoop=1;jettySize=auto;html=1;entryX=1;entryY=0.5;entryDx=0;entryDy=0;" edge="1" parent="1" source="HcMKOEFeZCEfm2jOjd8y-7" target="HcMKOEFeZCEfm2jOjd8y-8">
          <mxGeometry relative="1" as="geometry" />
        </mxCell>
        <mxCell id="HcMKOEFeZCEfm2jOjd8y-19" style="edgeStyle=orthogonalEdgeStyle;rounded=0;orthogonalLoop=1;jettySize=auto;html=1;entryX=1;entryY=0.5;entryDx=0;entryDy=0;" edge="1" parent="1" source="HcMKOEFeZCEfm2jOjd8y-7" target="HcMKOEFeZCEfm2jOjd8y-11">
          <mxGeometry relative="1" as="geometry" />
        </mxCell>
        <mxCell id="HcMKOEFeZCEfm2jOjd8y-7" value="Компания" style="shape=umlActor;verticalLabelPosition=bottom;verticalAlign=top;html=1;" vertex="1" parent="1">
          <mxGeometry x="760" y="930" width="30" height="60" as="geometry" />
        </mxCell>
        <mxCell id="HcMKOEFeZCEfm2jOjd8y-8" value="редактировать информацию о клиенте" style="ellipse;whiteSpace=wrap;html=1;" vertex="1" parent="1">
          <mxGeometry x="520" y="870" width="140" height="70" as="geometry" />
        </mxCell>
        <mxCell id="HcMKOEFeZCEfm2jOjd8y-9" value="редактировать информацию о товаре" style="ellipse;whiteSpace=wrap;html=1;" vertex="1" parent="1">
          <mxGeometry x="610" y="780" width="140" height="70" as="geometry" />
        </mxCell>
        <mxCell id="HcMKOEFeZCEfm2jOjd8y-10" value="Получить отчёты продаж" style="ellipse;whiteSpace=wrap;html=1;" vertex="1" parent="1">
          <mxGeometry x="515" y="960" width="140" height="70" as="geometry" />
        </mxCell>
        <mxCell id="HcMKOEFeZCEfm2jOjd8y-11" value="Получить список товара, которого мало" style="ellipse;whiteSpace=wrap;html=1;" vertex="1" parent="1">
          <mxGeometry x="530" y="1050" width="140" height="70" as="geometry" />
        </mxCell>
      </root>
    </mxGraphModel>
  </diagram>
</mxfile>
